<?xml version="1.0" standalone="no"?>
<!DOCTYPE svg PUBLIC "-//W3C//DTD SVG 20010904//EN"
 "http://www.w3.org/TR/2001/REC-SVG-20010904/DTD/svg10.dtd">
<svg version="1.0" xmlns="http://www.w3.org/2000/svg"
 width="500.000000pt" height="500.000000pt" viewBox="0 0 500.000000 500.000000"
 preserveAspectRatio="xMidYMid meet">
<metadata>
Created by potrace 1.14, written by Peter Selinger 2001-2017
</metadata>
<g transform="translate(0.000000,500.000000) scale(0.100000,-0.100000)"
fill="#000000" stroke="none">
<path d="M1061 4013 c-22 -43 12 -331 56 -462 92 -274 279 -503 537 -656 13
-8 18 -30 22 -108 6 -124 18 -187 48 -254 l25 -53 -40 -67 c-21 -38 -81 -111
-131 -164 -51 -54 -106 -120 -123 -148 -30 -50 -47 -62 -61 -40 -10 16 -145
79 -170 79 -70 0 -139 -47 -172 -118 -21 -47 -24 -64 -19 -126 13 -177 74
-313 192 -432 162 -163 267 -176 393 -48 35 35 69 64 77 64 7 0 25 -21 41 -47
59 -104 122 -183 231 -294 107 -110 208 -159 327 -159 80 0 126 19 189 81 57
55 58 57 52 99 -8 51 -33 118 -69 182 l-26 47 93 0 c51 0 101 3 110 7 23 9 22
0 -14 -85 -17 -41 -34 -100 -36 -132 -5 -56 -5 -58 37 -102 49 -54 112 -87
175 -92 54 -5 145 17 194 47 88 52 211 196 288 337 l41 74 38 -38 c113 -114
233 -97 384 55 109 108 155 197 184 350 48 252 -82 390 -276 295 -31 -15 -76
-45 -99 -66 -24 -22 -46 -39 -49 -39 -3 0 -16 21 -30 48 -28 54 -89 140 -113
161 -9 7 -37 54 -61 105 -24 50 -59 115 -79 145 l-34 54 19 55 c24 68 40 204
36 295 l-3 69 90 35 c201 79 381 238 507 448 45 74 71 140 98 244 21 85 25
127 11 135 -4 3 -66 17 -137 31 -268 54 -610 33 -818 -50 -64 -26 -66 -26
-121 -10 -132 39 -255 53 -425 50 -91 -2 -178 -6 -195 -9 -16 -4 -55 -11 -85
-17 -30 -6 -86 -20 -124 -31 l-68 -20 -27 25 c-78 74 -249 155 -446 212 -104
30 -178 41 -327 51 -99 6 -107 5 -117 -13z"/>
</g>
</svg>
